<mxfile host="app.diagrams.net" modified="2021-09-19T10:35:57.977Z" agent="5.0 (Windows NT 10.0; Win64; x64) AppleWebKit/537.36 (KHTML, like Gecko) Chrome/93.0.4577.82 Safari/537.36" etag="O0cFsrXcKUJTxqKTr7Iw" version="15.2.9" type="github">
  <diagram id="0b-qq7vZTB0jKMNP5tEl" name="Page-1">
    <mxGraphModel dx="868" dy="450" grid="1" gridSize="10" guides="1" tooltips="1" connect="1" arrows="1" fold="1" page="1" pageScale="1" pageWidth="827" pageHeight="1169" math="0" shadow="0">
      <root>
        <mxCell id="0" />
        <mxCell id="1" parent="0" />
        <mxCell id="1JqGFetEWKGEW0qKGL1V-13" value="" style="edgeStyle=orthogonalEdgeStyle;rounded=0;orthogonalLoop=1;jettySize=auto;html=1;" edge="1" parent="1" source="1JqGFetEWKGEW0qKGL1V-1" target="1JqGFetEWKGEW0qKGL1V-3">
          <mxGeometry relative="1" as="geometry" />
        </mxCell>
        <mxCell id="1JqGFetEWKGEW0qKGL1V-1" value="Başla" style="ellipse;whiteSpace=wrap;html=1;" vertex="1" parent="1">
          <mxGeometry x="340" y="20" width="120" height="70" as="geometry" />
        </mxCell>
        <mxCell id="1JqGFetEWKGEW0qKGL1V-9" value="" style="edgeStyle=orthogonalEdgeStyle;rounded=0;orthogonalLoop=1;jettySize=auto;html=1;" edge="1" parent="1" source="1JqGFetEWKGEW0qKGL1V-2" target="1JqGFetEWKGEW0qKGL1V-6">
          <mxGeometry relative="1" as="geometry" />
        </mxCell>
        <mxCell id="1JqGFetEWKGEW0qKGL1V-2" value="sayı1" style="shape=parallelogram;perimeter=parallelogramPerimeter;whiteSpace=wrap;html=1;fixedSize=1;" vertex="1" parent="1">
          <mxGeometry x="340" y="110" width="120" height="60" as="geometry" />
        </mxCell>
        <mxCell id="1JqGFetEWKGEW0qKGL1V-3" value="sayı2" style="shape=parallelogram;perimeter=parallelogramPerimeter;whiteSpace=wrap;html=1;fixedSize=1;" vertex="1" parent="1">
          <mxGeometry x="340" y="190" width="120" height="60" as="geometry" />
        </mxCell>
        <mxCell id="1JqGFetEWKGEW0qKGL1V-14" value="" style="edgeStyle=orthogonalEdgeStyle;rounded=0;orthogonalLoop=1;jettySize=auto;html=1;" edge="1" parent="1" source="1JqGFetEWKGEW0qKGL1V-6" target="1JqGFetEWKGEW0qKGL1V-7">
          <mxGeometry relative="1" as="geometry" />
        </mxCell>
        <mxCell id="1JqGFetEWKGEW0qKGL1V-6" value="sayı1 + sayı2" style="shape=document;whiteSpace=wrap;html=1;boundedLbl=1;" vertex="1" parent="1">
          <mxGeometry x="340" y="270" width="120" height="80" as="geometry" />
        </mxCell>
        <mxCell id="1JqGFetEWKGEW0qKGL1V-7" value="bitiş" style="ellipse;whiteSpace=wrap;html=1;" vertex="1" parent="1">
          <mxGeometry x="340" y="380" width="120" height="80" as="geometry" />
        </mxCell>
      </root>
    </mxGraphModel>
  </diagram>
</mxfile>
